# xmcd
#
# Track frame offsets:
# 150
# 19968
# 32705
# 55293
# 68573
# 93743
# 109440
# 121925
# 133223
# 160160
# 179718
# 196833
#
# Disc length: 2842 seconds
#
#
# Revision: 0
# Processed by: cddbd v1.5.2PL0 Copyright (c) Steve Scherf et al.
# Submitted via: FreeRIP 2.60 
#
DISCID=af0b180c
DTITLE=The Spiritual Corinthians - Second Chance
DYEAR=1993
DGENRE=Gospel
TTITLE0=Hey Y'all
TTITLE1=Let Him Come Into Your Life
TTITLE2=Cast The First Stone
TTITLE3=Listening For My Name
TTITLE4=Just Yesterday
TTITLE5=Hang On Soldier
TTITLE6=Sending Up My Timber
TTITLE7=In The Morning
TTITLE8=Can't Turn Around
TTITLE9=Colors
TTITLE10=Don't Let It Be Said Too Late
TTITLE11=Let's Go Home
EXTD=Praise the Lord Jesus Christ
EXTT0=
EXTT1=
EXTT2=
EXTT3=
EXTT4=
EXTT5=
EXTT6=
EXTT7=
EXTT8=
EXTT9=
EXTT10=
EXTT11=
PLAYORDER=
